PathFileType	4	(X/Y/Z)	TRC_missing_Z7
DataRate	CameraRate	NumFrames	NumMarkers	Units	OrigDataRate	OrigDataStartFrame	OrigNumFrames
100.00	100.00	       5	45	mm	100.00	979	       2609
Frame#	Time	T10			C7			CLAV			RACR1			LACR1			RPSI			LPSI			RASI			LASI			LTH2			LTH3			LTH1			RTH2			RTH3			RTH1			RLFC			RTB1			RTB3			RTB2			LLFC			LTB1			LTB3			LTB2			LLMAL			LCAL			RLMAL			RCAL			RMT5			RMT1			LMT5			LMT1			*31			*32			*33			*34			*35			*36			*37			*38			*39			*40			*41			*42			*43			*44			
		X1	Y1	Z1	X2	Y2	Z2	X3	Y3	Z3	X4	Y4	Z4	X5	Y5	Z5	X6	Y6	Z6	X7	Y7	X8	Y8	Z8	X9	Y9	Z9	X10	Y10	Z10	X11	Y11	Z11	X12	Y12	Z12	X13	Y13	Z13	X14	Y14	Z14	X15	Y15	Z15	X16	Y16	Z16	X17	Y17	Z17	X18	Y18	Z18	X19	Y19	Z19	X20	Y20	Z20	X21	Y21	Z21	X22	Y22	Z22	X23	Y23	Z23	X24	Y24	Z24	X25	Y25	Z25	X26	Y26	Z26	X27	Y27	Z27	X28	Y28	Z28	X29	Y29	Z29	X30	Y30	Z30	X31	Y31	Z31	X32	Y32	Z32	X33	Y33	Z33	X34	Y34	Z34	X35	Y35	Z35	X36	Y36	Z36	X37	Y37	Z37	X38	Y38	Z38	X39	Y39	Z39	X40	Y40	Z40	X41	Y41	Z41	X42	Y42	Z42	X43	Y43	Z43	X44	Y44	Z44	X45	Y45	Z45	
979	9.780000	734.750183	1218.301880	-521.926575	720.865845	1470.347900	-389.962860	720.225037	1309.034790	-296.862061	560.565247	1417.703613	-381.151764	897.038330	1410.660034	-358.551361	664.724609	1000.215759	-601.342407	752.059143	1010.636902	-597.883118	589.599243	960.944702	-373.799469	843.699158	960.218140	-365.146759	865.765991	686.213684	-463.594391	903.086243	756.025818	-467.078705	867.816223	824.038025	-396.229401	579.432556	735.588318	-290.093842	533.242554	780.813293	-348.871918	606.558960	840.102539	-329.359406	574.021729	518.241882	-275.235748	614.655579	418.665009	-213.475494	595.450073	337.861023	-232.521729	620.009033	287.638947	-219.117523	842.285095	493.497131	-583.362732	786.315308	375.473511	-589.166260	813.987610	319.160034	-633.815674	769.742188	270.059021	-647.282776	785.166565	109.543938	-777.702942	739.054016	85.711082	-844.374023	616.435669	87.773521	-252.988831	665.096985	36.275681	-304.345520	613.174133	68.318489	-139.514221	683.414001	86.666191	-116.616974	809.338257	39.005096	-675.329346	737.775574	50.786026	-643.086548	922.394897	1053.705200	412.657288	923.716492	1057.420410	472.424225	0.000000	0.000000	0.000000	921.699158	1058.272827	395.276947	270.904022	1036.736938	618.800964	0.000000	0.000000	0.000000	0.000000	0.000000	0.000000	-18.046648	12.090114	-1119.631592	1151.575806	12.631998	-1033.616211	-0.772057	12.001772	0.937754	1167.717651	12.557495	85.344025	0.000000	0.000000	0.000000	0.000000	0.000000	0.000000	0.000000	0.000000	0.000000	
980	9.790000	733.680359	1218.014160	-521.162476	719.684082	1470.203003	-389.437042	719.261719	1308.986938	-296.092712	559.409485	1417.339844	-380.395294	895.883179	1410.740601	-358.048645	663.210510	1000.171753	-600.070679	750.578369	1010.544678	-596.938293	589.104797	960.669250	-372.287628	843.262268	959.891052	-364.592743	865.554565	685.936218	-465.313049	902.430115	755.888428	-467.951782	867.404114	823.532654	-396.350037	580.300537	734.664978	-289.021851	533.578735	780.044861	-347.283905	606.749146	839.536865	-327.793182	575.148560	517.244690	-275.016968	616.467468	417.741943	-213.465576	596.860840	336.862274	-231.990356	621.541809	286.675507	-218.755859	841.922119	493.781860	-585.565674	786.321289	375.630951	-592.671631	814.096863	320.076447	-638.157593	769.892883	270.994385	-652.145447	785.487915	112.169891	-784.801392	739.248474	89.638687	-851.771851	617.218811	86.736122	-252.270248	665.313293	35.151424	-304.193268	614.983826	67.399269	-138.836365	685.516663	85.496056	-116.608635	809.275330	38.940254	-683.787231	737.804382	50.594090	-651.558838	922.398193	1053.664673	412.722137	923.716431	1057.420410	472.423981	919.493835	1056.241577	341.795105	921.691589	1058.266846	395.083130	270.866760	1036.743652	618.834656	0.000000	0.000000	0.000000	0.000000	0.000000	0.000000	-18.046717	12.090050	-1119.631470	1151.575806	12.632020	-1033.616211	-0.772088	12.001775	0.937585	1167.717651	12.557516	85.343979	0.000000	0.000000	0.000000	0.000000	0.000000	0.000000	0.000000	0.000000	0.000000	
981	9.800000	732.552185	1217.775024	-520.312134	718.458313	1470.111206	-388.830231	718.269165	1308.996704	-295.234650	558.210571	1417.026001	-379.500366	894.692444	1410.888062	-357.487946	661.667969	1000.181274	-598.694641	749.075317	1010.480103	-595.895996	588.585510	960.450012	-370.671417	842.790710	959.609436	-363.948059	865.362427	685.638855	-466.717377	901.757324	755.737732	-468.493652	866.964539	823.079102	-396.290375	581.177612	733.739502	-287.879639	533.918213	779.318542	-345.590302	606.938782	838.978882	-326.122681	576.208801	516.201721	-274.922729	618.238403	416.663483	-213.862411	598.238220	335.779755	-232.067459	623.045166	285.604248	-219.155197	841.573975	493.994537	-587.304932	786.385864	375.726837	-595.752563	814.249512	320.990692	-642.133911	770.103333	271.927917	-656.654114	785.860962	114.938950	-791.683105	739.466064	93.815460	-858.900391	617.980103	85.739120	-252.912048	665.513000	34.239140	-305.530701	616.717773	66.212158	-139.632538	687.551147	83.961906	-117.976601	809.197021	38.880779	-692.272766	737.838501	50.377579	-660.063293	922.398926	1053.655762	412.736267	923.716431	1057.420410	472.423920	919.493835	1056.241577	341.795105	921.684326	1058.261108	394.896240	270.824341	1036.750366	618.874695	922.950256	1055.624268	477.627258	0.000000	0.000000	0.000000	-18.046785	12.089985	-1119.631348	1151.575806	12.632041	-1033.616333	-0.772118	12.001777	0.937417	1167.717651	12.557538	85.343933	0.000000	0.000000	0.000000	0.000000	0.000000	0.000000	0.000000	0.000000	0.000000	
982	9.810000	731.369873	1217.587646	-519.383057	717.194824	1470.074097	-388.147583	717.253601	1309.065674	-294.295105	556.975525	1416.765869	-378.472504	893.472473	1411.102539	-356.874512	660.099915	1000.246277	-597.224854	747.552551	1010.443420	-594.765747	588.040222	960.292725	-368.961151	842.282654	959.375183	-363.220642	865.178406	685.327026	-467.770599	901.060913	755.572327	-468.713257	866.493408	822.681641	-396.052185	582.049500	732.825317	-286.677582	534.250122	778.644836	-343.803711	607.118225	838.438354	-324.360565	577.196289	515.127258	-274.950958	619.955383	415.447876	-214.643402	599.571716	334.622864	-232.718872	624.506775	284.435486	-220.265747	841.252197	494.129639	-588.560364	786.522522	375.757965	-598.384888	814.453674	321.901031	-645.717529	770.386841	272.858307	-660.779907	786.290894	117.855904	-798.308167	739.709167	98.255592	-865.706909	618.707397	84.777412	-254.817657	665.684387	33.519405	-308.244446	618.353455	64.787560	-141.789658	689.496216	82.102211	-120.604996	809.099365	38.834805	-700.786621	737.875671	50.139156	-668.603027	0.000000	0.000000	0.000000	0.000000	0.000000	0.000000	919.493835	1056.241577	341.795105	921.677979	1058.256104	394.733673	270.778168	1036.756592	618.920166	922.923340	1055.573608	477.758698	0.000000	0.000000	0.000000	-18.046854	12.089918	-1119.631226	1151.575806	12.632062	-1033.616333	-0.772147	12.001778	0.937249	1167.717651	12.557559	85.343887	0.000000	0.000000	0.000000	0.000000	0.000000	0.000000	0.000000	0.000000	0.000000	
983	9.820000	730.138000	1217.454590	-518.383789	715.900452	1470.093018	-387.395233	716.221497	1309.195190	-293.282440	555.711914	1416.562866	-377.318573	892.229797	1411.383911	-356.214874	658.509399	1000.368164	-595.672852	746.012695	1010.434937	-593.557922	587.467590	960.202271	-367.168274	841.736084	959.190002	-362.419403	864.992310	685.007874	-468.438019	900.334412	755.393372	-468.624084	865.986877	822.344910	-395.639343	582.900208	731.933105	-285.429718	534.562561	778.031799	-341.940460	607.276550	837.923523	-322.521881	578.105286	514.034424	-275.102722	621.605835	414.114441	-215.786011	600.851257	333.402191	-233.907791	625.915283	283.181946	-222.033463	840.969299	494.183014	-589.313660	786.745056	375.722504	-600.544983	814.717407	322.806244	-648.881165	770.756592	273.785065	-664.493469	786.782654	120.925201	-804.633240	739.980347	102.971825	-872.134827	619.389160	83.849602	-257.876953	665.815796	32.974022	-312.205566	619.870789	63.165222	-145.179749	691.333191	79.965874	-124.365891	808.979065	38.813053	-709.325562	737.913940	49.883762	-677.176819	922.923584	1052.175537	415.531067	0.000000	0.000000	0.000000	0.000000	0.000000	0.000000	921.673157	1058.252197	394.609894	270.730072	1036.761719	618.969788	922.896240	1055.522827	477.891022	0.000000	0.000000	0.000000	-18.046923	12.089851	-1119.631104	1151.575806	12.632081	-1033.616333	-0.772176	12.001779	0.937082	1167.717651	12.557580	85.343842	0.000000	0.000000	0.000000	0.000000	0.000000	0.000000	0.000000	0.000000	0.000000	
